# WaveFront *.obj file (generated by Autodesk ATF)

mtllib line_red_scaled70% v1.mtl

g Body1

v 1.295000 7.000000 1.295000
v -1.295000 7.000000 1.295000
v -1.295000 0.000000 1.295000
v -1.295000 -7.000000 1.295000
v 1.295000 -7.000000 1.295000
v 1.295000 0.000000 1.295000
v 1.295000 7.000000 -1.295000
v 1.295000 -7.000000 -1.295000
v 1.295000 0.000000 -1.295000
v -1.295000 7.000000 -1.295000
v -1.295000 -7.000000 -1.295000
v -1.295000 0.000000 -1.295000
vt 0.000000 0.000000 0.000000
vt 2.590000 0.000000 0.000000
vt 0.000000 7.000000 0.000000
vt 2.590000 7.000000 0.000000
vt 0.000000 14.000000 0.000000
vt 2.590000 14.000000 0.000000
vt 0.000000 0.000000 0.000000
vt 2.590000 0.000000 0.000000
vt 0.000000 7.000000 0.000000
vt 2.590000 7.000000 0.000000
vt 0.000000 14.000000 0.000000
vt 2.590000 14.000000 0.000000
vt 0.000000 0.000000 0.000000
vt 2.590000 0.000000 0.000000
vt 0.000000 7.000000 0.000000
vt 2.590000 7.000000 0.000000
vt 0.000000 14.000000 0.000000
vt 2.590000 14.000000 0.000000
vt 0.000000 -0.000000 0.000000
vt 2.590000 0.000000 0.000000
vt 0.000000 7.000000 0.000000
vt 2.590000 7.000000 0.000000
vt 0.000000 14.000000 0.000000
vt 2.590000 14.000000 0.000000
vt -1.295000 -1.295000 0.000000
vt 1.295000 -1.295000 0.000000
vt -1.295000 1.295000 0.000000
vt 1.295000 1.295000 0.000000
vt -1.295000 -1.295000 0.000000
vt 1.295000 -1.295000 0.000000
vt -1.295000 1.295000 0.000000
vt 1.295000 1.295000 0.000000
vn 0.000000 0.000000 1.000000
vn 0.000000 0.000000 1.000000
vn 0.000000 0.000000 1.000000
vn 0.000000 0.000000 1.000000
vn 0.000000 0.000000 1.000000
vn 0.000000 0.000000 1.000000
vn 1.000000 0.000000 0.000000
vn 1.000000 0.000000 0.000000
vn 1.000000 0.000000 0.000000
vn 1.000000 0.000000 0.000000
vn 1.000000 0.000000 0.000000
vn 1.000000 0.000000 0.000000
vn 0.000000 0.000000 -1.000000
vn 0.000000 0.000000 -1.000000
vn 0.000000 0.000000 -1.000000
vn 0.000000 0.000000 -1.000000
vn 0.000000 0.000000 -1.000000
vn 0.000000 0.000000 -1.000000
vn -1.000000 0.000000 0.000000
vn -1.000000 0.000000 0.000000
vn -1.000000 0.000000 0.000000
vn -1.000000 0.000000 0.000000
vn -1.000000 0.000000 0.000000
vn -1.000000 0.000000 0.000000
vn 0.000000 1.000000 0.000000
vn 0.000000 1.000000 0.000000
vn 0.000000 1.000000 0.000000
vn 0.000000 1.000000 0.000000
vn 0.000000 -1.000000 0.000000
vn 0.000000 -1.000000 0.000000
vn 0.000000 -1.000000 0.000000
vn 0.000000 -1.000000 0.000000
usemtl Opaque(83,255,20)
f 1/1/1 2/2/2 6/3/3
f 6/3/3 2/2/2 3/4/4
f 6/3/3 3/4/4 5/5/5
f 5/5/5 3/4/4 4/6/6
f 7/7/7 1/8/8 9/9/9
f 9/9/9 1/8/8 6/10/10
f 9/9/9 6/10/10 8/11/11
f 8/11/11 6/10/10 5/12/12
f 10/13/13 7/14/14 12/15/15
f 12/15/15 7/14/14 9/16/16
f 12/15/15 9/16/16 11/17/17
f 11/17/17 9/16/16 8/18/18
f 2/19/19 10/20/20 3/21/21
f 3/21/21 10/20/20 12/22/22
f 3/21/21 12/22/22 4/23/23
f 4/23/23 12/22/22 11/24/24
f 2/25/25 1/26/26 10/27/27
f 10/27/27 1/26/26 7/28/28
f 4/29/29 11/30/30 5/31/31
f 5/31/31 11/30/30 8/32/32
# 12 vertices
# 32 texture params
# 32 normals
# 20 facets

# 1 groups
